<svg xmlns="http://www.w3.org/2000/svg" viewBox="0 0 64 64" width="64" height="64" role="img" aria-label="Cancer"><title>Cancer</title><circle cx="32" cy="32" r="31" fill="#2a201b"/><circle cx="32" cy="32" r="25" fill="none" stroke="#6a5a50" stroke-width="1"/><circle cx="57.00" cy="32.00" r="5" fill="#2a201b"/><circle cx="57.00" cy="32.00" r="2.6" fill="#d9654f"/><path d="M14.2 20 A3.4 3.4 0 1 0 21 20 A3.4 3.4 0 1 0 14.2 20 M14.3 19 C17 13.5 28 12.5 34 17.5 M27 28 A3.4 3.4 0 1 0 33.8 28 A3.4 3.4 0 1 0 27 28 M33.7 29 C31 34.5 20 35.5 14 30.5" fill="none" stroke="#f5f0e8" stroke-width="2.4" stroke-linecap="round" stroke-linejoin="round" transform="translate(11 11) scale(.875)"/></svg>